<svg viewBox="0 0 16 16" xmlns="http://www.w3.org/2000/svg">
    <symbol viewBox="0 0 16 16" id="zoom">
        <title>zoom</title>
        <path d="M7,4H6v2H4v1h2v2h1V7h2V6H7V4z M11,9.6c0.6-0.9,1-2,1-3.1C12,3.5,9.5,1,6.5,1S1,3.5,1,6.5S3.5,12,6.5,12c1.2,0,2.2-0.4,3.1-1l3.7,3.7l1.4-1.4L11,9.6z M6.5,10.5c-2.2,0-4-1.8-4-4s1.8-4,4-4s4,1.8,4,4S8.7,10.5,6.5,10.5z"/>
    </symbol>
    <symbol viewBox="0 0 16 16" id="tags">
        <title>tags</title>
        <path d="M3 2v4.586l7 7L14.586 9l-7-7H3zM2 2a1 1 0 0 1 1-1h4.586a1 1 0 0 1 .707.293l7 7a1 1 0 0 1 0 1.414l-4.586 4.586a1 1 0 0 1-1.414 0l-7-7A1 1 0 0 1 2 6.586V2z"/>
        <path d="M5.5 5a.5.5 0 1 1 0-1 .5.5 0 0 1 0 1zm0 1a1.5 1.5 0 1 0 0-3 1.5 1.5 0 0 0 0 3zM1 7.086a1 1 0 0 0 .293.707L8.75 15.25l-.043.043a1 1 0 0 1-1.414 0l-7-7A1 1 0 0 1 0 7.586V3a1 1 0 0 1 1-1v5.086z"/>
    </symbol>
    <symbol viewBox="0 0 16 16" id="tag">
        <title>tag</title>
        <path d="M11.3,4.3C11.1,4.1,10.9,4,10.6,4H3C2.5,4,2,4.5,2,5v6c0,0.6,0.5,1,1,1h7.6c0.3,0,0.5-0.1,0.7-0.3L15,8L11.3,4.3z M10,9C9.5,9,9,8.5,9,8s0.5-1,1-1s1,0.5,1,1S10.5,9,10,9z"/>
    </symbol>
</svg>